# xmcd
#
# Track frame offsets: 
#        150
#        5730
#        27717
#        47922
#        65505
#        88560
#        111420
#        131025
#        154117
#        172382
#        188420
#        208487
#        229447
#        248355
#
# Disc length: 3667 seconds
#
# Revision: 9
# Processed by: cddbd v1.5.2PL0 Copyright (c) Steve Scherf et al.
# Submitted via: ExactAudioCopy v1.0b3
#
DISCID=cf0e510e
DTITLE=Celine Dion - celine dion
DYEAR=1992
DGENRE=W-song
TTITLE0=introduction
TTITLE1=love can move mountains
TTITLE2=show some emotion
TTITLE3=if you asked me to
TTITLE4=if you could see me now
TTITLE5=harfway to heaven
TTITLE6=did you give enough love
TTITLE7=if i were you
TTITLE8=beauty and the beast (from the original motion picture soundtr
TTITLE8=ack)
TTITLE9=i love you, goodbye
TTITLE10=little bit of love
TTITLE11=water from the moon
TTITLE12=with this tear
TTITLE13=nothing broken but my heart
EXTD=YEAR: 1992
EXTT0=
EXTT1=
EXTT2=
EXTT3=
EXTT4=
EXTT5=
EXTT6=
EXTT7=
EXTT8=
EXTT9=
EXTT10=
EXTT11=
EXTT12=
EXTT13=
PLAYORDER=
